<svg width="163" height="36" viewBox="0 0 163 36" fill="none" xmlns="http://www.w3.org/2000/svg">
<path d="M50.934 10.7812C54.8599 10.7812 58.0532 13.8922 58.0532 17.7169C58.0532 21.5417 54.8599 24.6527 50.934 24.6527H46.0522V10.7812H50.934ZM50.934 6.81055H44.2166C42.9928 6.81055 41.9766 7.79808 41.9766 8.99286V26.4436C41.9766 27.6358 42.9902 28.6259 44.2166 28.6259H50.934C57.1262 28.6259 62.1288 23.7522 62.1288 17.7195C62.1288 11.6868 57.1262 6.81055 50.934 6.81055Z" fill="black"/>
<path d="M81.7853 26.6426C81.7853 27.7273 80.8636 28.6253 79.7502 28.6253C78.6367 28.6253 77.715 27.7273 77.715 26.6426V20.6943C77.715 18.4941 75.903 16.7288 73.6446 16.7288C71.3862 16.7288 69.5743 18.4941 69.5743 20.6943V26.6426C69.5743 27.7273 68.6525 28.6253 67.5391 28.6253C66.4257 28.6253 65.5039 27.7273 65.5039 26.6426V8.79525C65.5039 7.71049 66.4257 6.8125 67.5391 6.8125C68.6525 6.8125 69.5743 7.71049 69.5743 8.79525V13.8455C70.7507 13.165 72.1504 12.7607 73.6446 12.7607C78.1273 12.7607 81.7853 16.3246 81.7853 20.6918V26.6426Z" fill="black"/>
<path d="M89.8008 26.643C89.8008 27.7277 88.8791 28.6257 87.7656 28.6257C86.6522 28.6257 85.7305 27.7277 85.7305 26.643V14.7464C85.7305 13.6617 86.6522 12.7637 87.7656 12.7637C88.8791 12.7637 89.8008 13.6617 89.8008 14.7464V26.643Z" fill="black"/>
<path d="M116.641 26.6426C116.641 27.7273 115.719 28.6253 114.606 28.6253C114.065 28.6253 113.555 28.4079 113.175 28.0369L105.446 20.5076L97.7203 28.0369C97.3395 28.4079 96.83 28.6253 96.2891 28.6253C95.1756 28.6253 94.2539 27.7273 94.2539 26.6426V8.79525C94.2539 7.71049 95.1756 6.8125 96.2891 6.8125C97.4025 6.8125 98.3243 7.71049 98.3243 8.79525V21.8712L104.018 16.3246C104.398 15.9229 104.939 15.7362 105.449 15.7362C105.958 15.7362 106.499 15.9229 106.88 16.3246L112.573 21.8712V8.79525C112.573 7.71049 113.495 6.8125 114.608 6.8125C115.722 6.8125 116.644 7.71049 116.644 8.79525V26.6426H116.641Z" fill="black"/>
<path d="M125.164 26.643C125.164 27.7277 124.242 28.6257 123.129 28.6257C122.015 28.6257 121.094 27.7277 121.094 26.643V14.7464C121.094 13.6617 122.015 12.7637 123.129 12.7637C124.242 12.7637 125.164 13.6617 125.164 14.7464V26.643Z" fill="black"/>
<path d="M138.269 24.6604C138.841 24.6604 139.285 24.2281 139.285 23.6678C139.285 23.1075 138.841 22.6751 138.269 22.6751H134.199C131.399 22.6751 129.109 20.4442 129.109 17.7169C129.109 14.9897 131.399 12.7588 134.199 12.7588H140.304C141.418 12.7588 142.339 13.6568 142.339 14.7415C142.339 15.8263 141.418 16.7243 140.304 16.7243H134.199C133.626 16.7243 133.18 17.1567 133.18 17.7169C133.18 18.2772 133.624 18.7096 134.199 18.7096H138.269C141.068 18.7096 143.356 20.9405 143.356 23.6678C143.356 26.395 141.066 28.6259 138.269 28.6259H131.145C130.031 28.6259 129.109 27.7279 129.109 26.6432C129.109 25.5584 130.031 24.6604 131.145 24.6604H138.269Z" fill="black"/>
<path d="M154.424 28.6257C149.939 28.6257 146.283 25.0619 146.283 20.6947C146.283 16.3275 149.939 12.7637 154.424 12.7637C158.907 12.7637 162.565 16.3275 162.565 20.6947C162.565 21.7794 161.643 22.6774 160.53 22.6774H150.892C151.593 23.885 152.896 24.6602 154.421 24.6602H156.457C157.57 24.6602 158.492 25.5582 158.492 26.643C158.492 27.7277 157.57 28.6257 156.457 28.6257H154.424ZM150.892 18.7094H157.951C157.252 17.5325 155.916 16.7266 154.421 16.7266C152.896 16.7266 151.593 17.5325 150.892 18.7094Z" fill="black"/>
<path d="M87.7645 11.2743C89.0292 11.2743 90.0544 10.2755 90.0544 9.04341C90.0544 7.81131 89.0292 6.8125 87.7645 6.8125C86.4998 6.8125 85.4746 7.81131 85.4746 9.04341C85.4746 10.2755 86.4998 11.2743 87.7645 11.2743Z" fill="url(#paint0_linear_26_9750)"/>
<path d="M123.13 11.2743C124.394 11.2743 125.42 10.2755 125.42 9.04341C125.42 7.81131 124.394 6.8125 123.13 6.8125C121.865 6.8125 120.84 7.81131 120.84 9.04341C120.84 10.2755 121.865 11.2743 123.13 11.2743Z" fill="url(#paint1_linear_26_9750)"/>
<path d="M25.3623 0H2.33455C1.04516 0 0 1.01824 0 2.27441V27.0601C0 27.9811 0.56985 28.81 1.4417 29.1605C2.31091 29.511 3.31669 29.3166 3.98633 28.6667L15.2284 17.7143C16.1396 16.8265 16.1396 15.3862 15.2284 14.4984C14.3172 13.6106 12.8387 13.6106 11.9275 14.4984L4.6691 21.5698V4.54882H25.3649C28.8602 4.54882 31.7015 7.31955 31.7015 10.7222V24.7089C31.7015 28.1141 28.8575 30.8823 25.3649 30.8823H14.2305L21.4889 23.8109C22.4001 22.9232 22.4001 21.4828 21.4889 20.595C20.5776 19.7073 19.0992 19.7073 18.1879 20.595L6.94325 31.5501C6.27623 32.1999 6.07665 33.1797 6.43642 34.0291C6.79881 34.8785 7.64965 35.4337 8.5924 35.4337H25.3597C31.4284 35.4337 36.3654 30.6239 36.3654 24.7115V10.7248C36.3706 4.81233 31.4337 0 25.3623 0Z" fill="url(#paint2_linear_26_9750)"/>
<path d="M25.265 19.1929C26.5543 19.1929 27.5995 18.1747 27.5995 16.9185V10.8193C27.5995 9.56316 26.5543 8.54492 25.265 8.54492H19.0045C17.7151 8.54492 16.6699 9.56316 16.6699 10.8193C16.6699 12.0755 17.7151 13.0937 19.0045 13.0937H22.9304V16.9185C22.9304 18.1747 23.9756 19.1929 25.265 19.1929Z" fill="url(#paint3_linear_26_9750)"/>
<defs>
<linearGradient id="paint0_linear_26_9750" x1="85.4746" y1="9.04342" x2="90.0544" y2="9.04342" gradientUnits="userSpaceOnUse">
<stop stop-color="#0068FF"/>
<stop offset="1" stop-color="#0000E1"/>
</linearGradient>
<linearGradient id="paint1_linear_26_9750" x1="120.84" y1="9.04342" x2="125.42" y2="9.04342" gradientUnits="userSpaceOnUse">
<stop stop-color="#FF9852"/>
<stop offset="0.2774" stop-color="#FF8A3A"/>
<stop offset="1" stop-color="#FF6700"/>
</linearGradient>
<linearGradient id="paint2_linear_26_9750" x1="12.8562" y1="12.5286" x2="37.9051" y2="-13.1752" gradientUnits="userSpaceOnUse">
<stop stop-color="#0068FF"/>
<stop offset="1" stop-color="#0000E1"/>
</linearGradient>
<linearGradient id="paint3_linear_26_9750" x1="20.5341" y1="12.3096" x2="28.0608" y2="4.58382" gradientUnits="userSpaceOnUse">
<stop stop-color="#FF9852"/>
<stop offset="0.2774" stop-color="#FF8A3A"/>
<stop offset="1" stop-color="#FF6700"/>
</linearGradient>
</defs>
</svg>
