<svg width="20" height="20" viewBox="0 0 20 20" fill="none" xmlns="http://www.w3.org/2000/svg">
<path d="M18.092 16.9085L15.0004 13.8418C16.2004 12.3455 16.7816 10.4462 16.6244 8.53458C16.4671 6.62291 15.5834 4.84415 14.155 3.56403C12.7265 2.28392 10.8618 1.59976 8.94442 1.65222C7.02702 1.70469 5.20259 2.4898 3.84627 3.84611C2.48995 5.20243 1.70484 7.02686 1.65238 8.94426C1.59991 10.8617 2.28407 12.7263 3.56419 14.1548C4.84431 15.5832 6.62307 16.4669 8.53474 16.6242C10.4464 16.7814 12.3457 16.2002 13.842 15.0002L16.9087 18.0668C16.9862 18.1449 17.0783 18.2069 17.1799 18.2492C17.2814 18.2915 17.3903 18.3133 17.5004 18.3133C17.6104 18.3133 17.7193 18.2915 17.8208 18.2492C17.9224 18.2069 18.0145 18.1449 18.092 18.0668C18.2422 17.9114 18.3262 17.7038 18.3262 17.4877C18.3262 17.2715 18.2422 17.0639 18.092 16.9085ZM9.16699 15.0002C8.01326 15.0002 6.88545 14.658 5.92616 14.0171C4.96687 13.3761 4.2192 12.465 3.77769 11.3992C3.33618 10.3333 3.22066 9.16036 3.44574 8.0288C3.67082 6.89725 4.22639 5.85784 5.0422 5.04204C5.858 4.22623 6.89741 3.67066 8.02896 3.44558C9.16052 3.2205 10.3334 3.33602 11.3993 3.77753C12.4652 4.21904 13.3763 4.96671 14.0173 5.926C14.6582 6.88529 15.0004 8.0131 15.0004 9.16683C15.0004 10.7139 14.3858 12.1976 13.2918 13.2916C12.1978 14.3856 10.7141 15.0002 9.16699 15.0002Z" fill="#262B35"/>
</svg>
