<svg width="24" height="24" viewBox="0 0 24 24" fill="none" xmlns="http://www.w3.org/2000/svg">
<path d="M8.1072 14.4752L11.6462 10.9363L11.9997 10.5827L12.3533 10.9363L15.8918 14.4748C15.892 14.475 15.8923 14.4753 15.8925 14.4755C15.9855 14.5674 16.111 14.6193 16.2418 14.6198L16.2426 14.6198C16.3084 14.6202 16.3736 14.6076 16.4346 14.5827L8.1072 14.4752ZM8.1072 14.4752C8.10706 14.4754 8.10691 14.4755 8.10676 14.4757C8.01313 14.5685 7.88659 14.6206 7.75471 14.6206C7.62261 14.6206 7.49588 14.5683 7.4022 14.4752L7.40182 14.4748C7.35494 14.4283 7.31774 14.373 7.29236 14.3121L7.29235 14.3121C7.26698 14.2512 7.25391 14.1858 7.25391 14.1198C7.25391 14.0538 7.26698 13.9885 7.29236 13.9275L6.83168 13.7356L7.29236 13.9275C7.31774 13.8666 7.35494 13.8113 7.4018 13.7648L7.4018 13.7648L7.40326 13.7634L11.6433 9.52337L11.6433 9.52338L11.6447 9.52192C11.6912 9.47506 11.7465 9.43786 11.8074 9.41248C11.8683 9.38709 11.9337 9.37402 11.9997 9.37402C12.0657 9.37402 12.1311 9.38709 12.192 9.41247L12.192 9.41248C12.2529 9.43786 12.3082 9.47506 12.3547 9.52194L12.3547 9.52195L12.3582 9.52544L16.6406 13.7579C16.6835 13.8049 16.717 13.8595 16.7393 13.9189L16.7393 13.9189C16.7626 13.9809 16.7734 14.0468 16.7711 14.1128L17.2708 14.1302L16.7711 14.1125L8.1072 14.4752ZM16.6039 14.4685L16.6106 14.4624C16.659 14.4177 16.6982 14.3638 16.7258 14.3036L16.6039 14.4685ZM16.6039 14.4685L16.5975 14.4749M16.6039 14.4685L16.5975 14.4749M16.5975 14.4749C16.5509 14.5211 16.4955 14.5578 16.4346 14.5827L16.5975 14.4749Z" fill="black" stroke="#424C5D"/>
</svg>
